<mxfile host="app.diagrams.net" modified="2021-07-16T13:57:51.789Z" agent="5.0 (Windows NT 10.0; WOW64) AppleWebKit/537.36 (KHTML, like Gecko) Chrome/91.0.4472.124 Safari/537.36" etag="jOeqrl0uJxXNbF4efNd7" version="14.8.6" type="github">
  <diagram id="CXPO-AR_0RYmUid8dirL" name="Page-1">
    <mxGraphModel dx="981" dy="526" grid="1" gridSize="10" guides="1" tooltips="1" connect="1" arrows="1" fold="1" page="1" pageScale="1" pageWidth="827" pageHeight="1169" math="0" shadow="0">
      <root>
        <mxCell id="0" />
        <mxCell id="1" parent="0" />
        <mxCell id="n2ZijQBZMGM2VzN1pB6L-13" style="edgeStyle=orthogonalEdgeStyle;rounded=0;orthogonalLoop=1;jettySize=auto;html=1;entryX=0.5;entryY=0;entryDx=0;entryDy=0;startArrow=none;" edge="1" parent="1" source="n2ZijQBZMGM2VzN1pB6L-14" target="n2ZijQBZMGM2VzN1pB6L-9">
          <mxGeometry relative="1" as="geometry" />
        </mxCell>
        <mxCell id="n2ZijQBZMGM2VzN1pB6L-1" value="" style="rounded=1;whiteSpace=wrap;html=1;" vertex="1" parent="1">
          <mxGeometry x="250" y="240" width="240" height="150" as="geometry" />
        </mxCell>
        <mxCell id="n2ZijQBZMGM2VzN1pB6L-31" style="edgeStyle=orthogonalEdgeStyle;rounded=0;orthogonalLoop=1;jettySize=auto;html=1;exitX=0;exitY=0.5;exitDx=0;exitDy=0;entryX=0.5;entryY=0;entryDx=0;entryDy=0;" edge="1" parent="1" source="n2ZijQBZMGM2VzN1pB6L-2" target="n2ZijQBZMGM2VzN1pB6L-5">
          <mxGeometry relative="1" as="geometry" />
        </mxCell>
        <mxCell id="n2ZijQBZMGM2VzN1pB6L-32" style="edgeStyle=orthogonalEdgeStyle;rounded=0;orthogonalLoop=1;jettySize=auto;html=1;exitX=1;exitY=0.5;exitDx=0;exitDy=0;entryX=0.714;entryY=0.1;entryDx=0;entryDy=0;entryPerimeter=0;" edge="1" parent="1" source="n2ZijQBZMGM2VzN1pB6L-2" target="n2ZijQBZMGM2VzN1pB6L-25">
          <mxGeometry relative="1" as="geometry" />
        </mxCell>
        <mxCell id="n2ZijQBZMGM2VzN1pB6L-33" style="edgeStyle=orthogonalEdgeStyle;rounded=0;orthogonalLoop=1;jettySize=auto;html=1;exitX=0.5;exitY=0;exitDx=0;exitDy=0;" edge="1" parent="1" source="n2ZijQBZMGM2VzN1pB6L-2" target="n2ZijQBZMGM2VzN1pB6L-11">
          <mxGeometry relative="1" as="geometry" />
        </mxCell>
        <mxCell id="n2ZijQBZMGM2VzN1pB6L-2" value="执行器" style="rounded=1;whiteSpace=wrap;html=1;" vertex="1" parent="1">
          <mxGeometry x="330" y="170" width="90" height="50" as="geometry" />
        </mxCell>
        <mxCell id="n2ZijQBZMGM2VzN1pB6L-3" value="InnoDB 引擎&lt;br&gt;" style="text;html=1;strokeColor=none;fillColor=none;align=center;verticalAlign=middle;whiteSpace=wrap;rounded=0;" vertex="1" parent="1">
          <mxGeometry x="430" y="250" width="40" height="20" as="geometry" />
        </mxCell>
        <mxCell id="n2ZijQBZMGM2VzN1pB6L-5" value="" style="rounded=1;whiteSpace=wrap;html=1;" vertex="1" parent="1">
          <mxGeometry x="260" y="310" width="90" height="60" as="geometry" />
        </mxCell>
        <mxCell id="n2ZijQBZMGM2VzN1pB6L-7" value="Buffer Pool 缓冲池" style="text;html=1;strokeColor=none;fillColor=none;align=center;verticalAlign=middle;whiteSpace=wrap;rounded=0;" vertex="1" parent="1">
          <mxGeometry x="260" y="320" width="70" height="10" as="geometry" />
        </mxCell>
        <mxCell id="n2ZijQBZMGM2VzN1pB6L-8" value="默认 128 M&lt;br&gt;" style="text;html=1;strokeColor=none;fillColor=none;align=center;verticalAlign=middle;whiteSpace=wrap;rounded=0;" vertex="1" parent="1">
          <mxGeometry x="260" y="340" width="70" height="20" as="geometry" />
        </mxCell>
        <mxCell id="n2ZijQBZMGM2VzN1pB6L-9" value="Undo 日志" style="rounded=1;whiteSpace=wrap;html=1;" vertex="1" parent="1">
          <mxGeometry x="120" y="460" width="70" height="50" as="geometry" />
        </mxCell>
        <mxCell id="n2ZijQBZMGM2VzN1pB6L-10" value="Redo 日志" style="rounded=1;whiteSpace=wrap;html=1;" vertex="1" parent="1">
          <mxGeometry x="400" y="460" width="70" height="50" as="geometry" />
        </mxCell>
        <mxCell id="n2ZijQBZMGM2VzN1pB6L-38" style="edgeStyle=orthogonalEdgeStyle;rounded=0;orthogonalLoop=1;jettySize=auto;html=1;entryX=1;entryY=0.5;entryDx=0;entryDy=0;" edge="1" parent="1" source="n2ZijQBZMGM2VzN1pB6L-11" target="n2ZijQBZMGM2VzN1pB6L-10">
          <mxGeometry relative="1" as="geometry" />
        </mxCell>
        <mxCell id="n2ZijQBZMGM2VzN1pB6L-11" value="Binlog 日志" style="rounded=1;whiteSpace=wrap;html=1;" vertex="1" parent="1">
          <mxGeometry x="510" y="460" width="70" height="50" as="geometry" />
        </mxCell>
        <mxCell id="n2ZijQBZMGM2VzN1pB6L-14" value="2.写入旧值，便于回滚" style="text;html=1;align=center;verticalAlign=middle;resizable=0;points=[];autosize=1;strokeColor=none;fillColor=#B3FF66;" vertex="1" parent="1">
          <mxGeometry x="90" y="340" width="130" height="20" as="geometry" />
        </mxCell>
        <mxCell id="n2ZijQBZMGM2VzN1pB6L-15" value="" style="edgeStyle=orthogonalEdgeStyle;rounded=0;orthogonalLoop=1;jettySize=auto;html=1;entryX=0.5;entryY=0;entryDx=0;entryDy=0;endArrow=none;" edge="1" parent="1" source="n2ZijQBZMGM2VzN1pB6L-1" target="n2ZijQBZMGM2VzN1pB6L-14">
          <mxGeometry relative="1" as="geometry">
            <mxPoint x="250" y="325" as="sourcePoint" />
            <mxPoint x="155" y="430" as="targetPoint" />
            <Array as="points">
              <mxPoint x="155" y="320" />
            </Array>
          </mxGeometry>
        </mxCell>
        <mxCell id="n2ZijQBZMGM2VzN1pB6L-17" style="edgeStyle=orthogonalEdgeStyle;rounded=0;orthogonalLoop=1;jettySize=auto;html=1;entryX=0.357;entryY=1;entryDx=0;entryDy=0;entryPerimeter=0;" edge="1" parent="1" source="n2ZijQBZMGM2VzN1pB6L-16" target="n2ZijQBZMGM2VzN1pB6L-8">
          <mxGeometry relative="1" as="geometry">
            <Array as="points" />
          </mxGeometry>
        </mxCell>
        <mxCell id="n2ZijQBZMGM2VzN1pB6L-16" value="磁盘文件" style="rounded=1;whiteSpace=wrap;html=1;" vertex="1" parent="1">
          <mxGeometry x="250" y="460" width="70" height="50" as="geometry" />
        </mxCell>
        <mxCell id="n2ZijQBZMGM2VzN1pB6L-18" value="1.从磁盘加载数据" style="text;html=1;strokeColor=none;fillColor=#97D077;align=center;verticalAlign=middle;whiteSpace=wrap;rounded=0;" vertex="1" parent="1">
          <mxGeometry x="235" y="420" width="100" height="10" as="geometry" />
        </mxCell>
        <mxCell id="n2ZijQBZMGM2VzN1pB6L-23" value="3.在内存更新新值" style="text;html=1;strokeColor=none;fillColor=#97D077;align=center;verticalAlign=middle;whiteSpace=wrap;rounded=0;" vertex="1" parent="1">
          <mxGeometry x="260" y="280" width="100" height="10" as="geometry" />
        </mxCell>
        <mxCell id="n2ZijQBZMGM2VzN1pB6L-29" style="edgeStyle=orthogonalEdgeStyle;rounded=0;orthogonalLoop=1;jettySize=auto;html=1;entryX=0.5;entryY=0;entryDx=0;entryDy=0;" edge="1" parent="1" source="n2ZijQBZMGM2VzN1pB6L-25" target="n2ZijQBZMGM2VzN1pB6L-10">
          <mxGeometry relative="1" as="geometry" />
        </mxCell>
        <mxCell id="n2ZijQBZMGM2VzN1pB6L-25" value="Redo Log Buffer" style="rounded=1;whiteSpace=wrap;html=1;" vertex="1" parent="1">
          <mxGeometry x="400" y="315" width="70" height="50" as="geometry" />
        </mxCell>
        <mxCell id="n2ZijQBZMGM2VzN1pB6L-26" value="4.写入 Redo Log" style="text;html=1;strokeColor=none;fillColor=#97D077;align=center;verticalAlign=middle;whiteSpace=wrap;rounded=0;" vertex="1" parent="1">
          <mxGeometry x="400" y="290" width="100" height="10" as="geometry" />
        </mxCell>
        <mxCell id="n2ZijQBZMGM2VzN1pB6L-27" value="提交事务时，根据 innodb_flush_log_at_trx_commit 配置的值进项相应的redo log 刷盘策略" style="text;html=1;strokeColor=none;fillColor=none;align=center;verticalAlign=middle;whiteSpace=wrap;rounded=0;" vertex="1" parent="1">
          <mxGeometry x="640" y="160" width="200" height="40" as="geometry" />
        </mxCell>
        <mxCell id="n2ZijQBZMGM2VzN1pB6L-30" value="5.Redo Log 刷入磁盘" style="text;html=1;strokeColor=none;fillColor=#97D077;align=center;verticalAlign=middle;whiteSpace=wrap;rounded=0;" vertex="1" parent="1">
          <mxGeometry x="380" y="420" width="130" height="20" as="geometry" />
        </mxCell>
        <mxCell id="n2ZijQBZMGM2VzN1pB6L-34" value="6.准备提交事务，binlog 日志写入磁盘" style="text;html=1;strokeColor=none;fillColor=#97D077;align=center;verticalAlign=middle;whiteSpace=wrap;rounded=0;" vertex="1" parent="1">
          <mxGeometry x="485" y="220" width="120" height="10" as="geometry" />
        </mxCell>
        <mxCell id="n2ZijQBZMGM2VzN1pB6L-36" value="sync_binlog参数可以控制binlog的刷盘策略" style="text;html=1;strokeColor=none;fillColor=none;align=center;verticalAlign=middle;whiteSpace=wrap;rounded=0;" vertex="1" parent="1">
          <mxGeometry x="640" y="290" width="190" height="30" as="geometry" />
        </mxCell>
        <mxCell id="n2ZijQBZMGM2VzN1pB6L-37" value="OS Cache" style="rounded=1;whiteSpace=wrap;html=1;" vertex="1" parent="1">
          <mxGeometry x="490" y="375" width="46" height="45" as="geometry" />
        </mxCell>
        <mxCell id="n2ZijQBZMGM2VzN1pB6L-39" value="7.将binlog更新的文件名和文件位置写入redo log，并添加commit标记" style="text;html=1;strokeColor=none;fillColor=#97D077;align=center;verticalAlign=middle;whiteSpace=wrap;rounded=0;" vertex="1" parent="1">
          <mxGeometry x="440" y="520" width="110" height="35" as="geometry" />
        </mxCell>
        <mxCell id="n2ZijQBZMGM2VzN1pB6L-42" style="edgeStyle=orthogonalEdgeStyle;rounded=0;orthogonalLoop=1;jettySize=auto;html=1;exitX=0.5;exitY=1;exitDx=0;exitDy=0;entryX=1;entryY=0.5;entryDx=0;entryDy=0;" edge="1" parent="1" source="n2ZijQBZMGM2VzN1pB6L-40" target="n2ZijQBZMGM2VzN1pB6L-16">
          <mxGeometry relative="1" as="geometry" />
        </mxCell>
        <mxCell id="n2ZijQBZMGM2VzN1pB6L-40" value="IO线程" style="ellipse;whiteSpace=wrap;html=1;aspect=fixed;" vertex="1" parent="1">
          <mxGeometry x="360" y="350" width="40" height="40" as="geometry" />
        </mxCell>
        <mxCell id="n2ZijQBZMGM2VzN1pB6L-43" value="8.脏数据刷磁盘" style="text;html=1;strokeColor=none;fillColor=#97D077;align=center;verticalAlign=middle;whiteSpace=wrap;rounded=0;" vertex="1" parent="1">
          <mxGeometry x="335" y="440" width="90" height="20" as="geometry" />
        </mxCell>
      </root>
    </mxGraphModel>
  </diagram>
</mxfile>
